<svg viewBox="0 0 64 64" xmlns="http://www.w3.org/2000/svg">
  <!-- Data Crystal: Faceted gem shape suggesting transparency, security, and value -->
  <defs>
    <linearGradient id="facet1" x1="0%" y1="0%" x2="100%" y2="100%">
      <stop offset="0%" stop-color="#5EEAD4"/>
      <stop offset="100%" stop-color="#0D9488"/>
    </linearGradient>
    <linearGradient id="facet2" x1="100%" y1="0%" x2="0%" y2="100%">
      <stop offset="0%" stop-color="#60A5FA"/>
      <stop offset="100%" stop-color="#1D4ED8"/>
    </linearGradient>
    <linearGradient id="facet3" x1="50%" y1="0%" x2="50%" y2="100%">
      <stop offset="0%" stop-color="#38BDF8"/>
      <stop offset="100%" stop-color="#0EA5E9"/>
    </linearGradient>
    <linearGradient id="facet4" x1="0%" y1="100%" x2="100%" y2="0%">
      <stop offset="0%" stop-color="#14B8A6"/>
      <stop offset="100%" stop-color="#2DD4BF"/>
    </linearGradient>
  </defs>
  <!-- Crystal facets -->
  <!-- Top facet -->
  <path d="M32 6 L48 22 L32 32 L16 22 Z" fill="url(#facet4)"/>
  <!-- Left facet -->
  <path d="M16 22 L32 32 L32 58 L8 36 Z" fill="url(#facet1)"/>
  <!-- Right facet -->
  <path d="M48 22 L56 36 L32 58 L32 32 Z" fill="url(#facet2)"/>
  <!-- Bottom left -->
  <path d="M8 36 L32 58 L20 58 Z" fill="url(#facet1)" opacity="0.7"/>
  <!-- Bottom right -->
  <path d="M56 36 L44 58 L32 58 Z" fill="url(#facet2)" opacity="0.7"/>
  <!-- Highlight -->
  <path d="M32 12 L40 22 L32 28 L24 22 Z" fill="white" opacity="0.25"/>
</svg>
